<?xml version="1.0" encoding="UTF-8"?>
<svg id="Calque_1" xmlns="http://www.w3.org/2000/svg" version="1.1" viewBox="0 0 800 800">
  <!-- Generator: Adobe Illustrator 29.8.3, SVG Export Plug-In . SVG Version: 2.1.1 Build 3)  -->
  <defs>
    <style>
      .st0 {
        fill: #1967d2;
      }

      .st1 {
        fill: #ea4335;
      }

      .st2 {
        fill: #188038;
      }

      .st3 {
        fill: #fff;
      }

      .st4 {
        fill: #fbbc04;
      }

      .st5 {
        fill: #4285f4;
      }

      .st6 {
        fill: #1a73e8;
      }

      .st7 {
        fill: #34a853;
      }
    </style>
  </defs>
  <g id="SVGRepo_iconCarrier">
    <path class="st3" d="M50,298.9c0-87.1,0-130.7,17-164,14.9-29.3,38.7-53.1,68-68,33.3-17,76.8-17,164-17h202.2c87.1,0,130.7,0,164,17,29.3,14.9,53.1,38.7,68,68,17,33.3,17,76.8,17,164v202.2c0,87.1,0,130.7-17,164-14.9,29.3-38.7,53.1-68,68-33.3,17-76.8,17-164,17h-202.2c-87.1,0-130.7,0-164-17-29.3-14.9-53.1-38.7-68-68-17-33.3-17-76.8-17-164v-202.2h0Z"/>
  </g>
  <g>
    <path class="st3" d="M526.7,273.3l-114-12.6-139.3,12.6-12.6,126.7,12.6,126.7,126.7,15.9,126.7-15.9,12.6-129.8-12.6-123.5h-.1Z"/>
    <path class="st6" d="M325.3,469.8c-9.4-6.4-16.1-15.7-19.6-28l21.9-9.1c2,7.6,5.4,13.5,10.4,17.6,5,4.2,11,6.2,18,6.2s13.4-2.2,18.5-6.5,7.8-10,7.8-16.7-2.8-12.5-8.2-17-12.3-6.5-20.5-6.5h-12.7v-21.7h11.4c7,0,13-1.9,17.7-5.7s7.2-9,7.2-15.6-2.1-10.5-6.4-14.1-9.8-5.3-16.4-5.3-11.6,1.7-15.4,5.2-6.5,7.6-8.3,12.7l-21.7-9.1c2.9-8.2,8.2-15.4,16-21.6s17.6-9.4,29.7-9.4,17,1.7,24.1,5.2c7.1,3.4,12.6,8.2,16.7,14.3,4,6.1,6,13,6,20.5s-1.9,14.3-5.7,19.7-8.3,9.5-13.7,12.4v1.3c7.2,3,13.1,7.6,17.6,13.7,4.5,6.2,6.9,13.5,6.9,22.2s-2.2,16.3-6.5,23.1-10.4,12.1-18.1,16-16.3,5.9-25.9,5.9-21.4-3.2-30.8-9.5h.2Z"/>
    <path class="st6" d="M460.2,360.8l-24.1,17.4-12.1-18.3,43.2-31.3h16.6v147.3h-23.8v-115.2h.1Z"/>
    <path class="st1" d="M526.7,640.7l114-114-57-25.4-57,25.4-25.4,57,25.4,57h0Z"/>
    <path class="st7" d="M248,583.7l25.4,57h253.3v-114h-253.3l-25.4,57h0Z"/>
    <path class="st5" d="M197.4,159.3c-21,0-38,17-38,38v329.4l57,25.4,57-25.4v-253.3h253.3l25.4-57-25.3-57H197.4Z"/>
    <path class="st2" d="M159.3,526.7v76c0,21,17,38,38,38h76v-114h-114.1Z"/>
    <path class="st4" d="M526.7,273.3v253.3h114v-253.3l-57-25.4-57,25.4h0Z"/>
    <path class="st0" d="M640.7,273.3v-76c0-21-17-38-38-38h-76v114h114.1Z"/>
  </g>
</svg>