<!-- Icône SVG pour l'extension -->
<svg xmlns="http://www.w3.org/2000/svg" viewBox="0 0 128 128" width="128" height="128">
  <!-- Fond avec gradient -->
  <defs>
    <linearGradient id="bg" x1="0%" y1="0%" x2="100%" y2="100%">
      <stop offset="0%" style="stop-color:#667eea;stop-opacity:1" />
      <stop offset="100%" style="stop-color:#764ba2;stop-opacity:1" />
    </linearGradient>
  </defs>
  
  <!-- Fond principal -->
  <rect width="128" height="128" rx="24" fill="url(#bg)"/>
  
  <!-- Grille de points représentant les raccourcis -->
  <g fill="white" opacity="0.9">
    <!-- Ligne 1 -->
    <rect x="20" y="20" width="16" height="16" rx="4"/>
    <rect x="44" y="20" width="16" height="16" rx="4"/>
    <rect x="68" y="20" width="16" height="16" rx="4"/>
    <rect x="92" y="20" width="16" height="16" rx="4"/>
    
    <!-- Ligne 2 -->
    <rect x="20" y="44" width="16" height="16" rx="4"/>
    <rect x="44" y="44" width="16" height="16" rx="4"/>
    <rect x="68" y="44" width="16" height="16" rx="4"/>
    <rect x="92" y="44" width="16" height="16" rx="4"/>
    
    <!-- Ligne 3 -->
    <rect x="20" y="68" width="16" height="16" rx="4"/>
    <rect x="44" y="68" width="16" height="16" rx="4"/>
    <rect x="68" y="68" width="16" height="16" rx="4"/>
    <rect x="92" y="68" width="16" height="16" rx="4"/>
  </g>
  
  <!-- Barre de recherche -->
  <rect x="20" y="96" width="88" height="12" rx="6" fill="white" opacity="0.3"/>
  <circle cx="100" cy="102" r="4" fill="white" opacity="0.8"/>
</svg>
